<?xml version="1.0" encoding="UTF-8" standalone="no"?>
<!DOCTYPE svg PUBLIC "-//W3C//DTD SVG 1.1//EN"
 "http://www.w3.org/Graphics/SVG/1.1/DTD/svg11.dtd">
<!-- Generated by graphviz version 2.43.0 (0)
 -->
<!-- Title: %3 Pages: 1 -->
<svg width="1632pt" height="476pt"
 viewBox="0.00 0.00 1632.42 476.00" xmlns="http://www.w3.org/2000/svg" xmlns:xlink="http://www.w3.org/1999/xlink">
<g id="graph0" class="graph" transform="scale(1 1) rotate(0) translate(4 472)">
<title>%3</title>
<polygon fill="white" stroke="transparent" points="-4,4 -4,-472 1628.42,-472 1628.42,4 -4,4"/>
<!-- [root] module.databases.aws_dynamodb_table.dynamo&#45;state&#45;lock (expand) -->
<g id="node1" class="node">
<title>[root] module.databases.aws_dynamodb_table.dynamo&#45;state&#45;lock (expand)</title>
<polygon fill="none" stroke="black" points="589.64,-324 153.64,-324 153.64,-288 589.64,-288 589.64,-324"/>
<text text-anchor="middle" x="371.64" y="-302.3" font-family="Times,serif" font-size="14.00">module.databases.aws_dynamodb_table.dynamo&#45;state&#45;lock</text>
</g>
<!-- [root] provider[&quot;registry.terraform.io/hashicorp/aws&quot;] -->
<g id="node6" class="node">
<title>[root] provider[&quot;registry.terraform.io/hashicorp/aws&quot;]</title>
<polygon fill="none" stroke="black" points="659.64,-36 334.37,-18 659.64,0 984.9,-18 659.64,-36"/>
<text text-anchor="middle" x="659.64" y="-14.3" font-family="Times,serif" font-size="14.00">provider[&quot;registry.terraform.io/hashicorp/aws&quot;]</text>
</g>
<!-- [root] module.databases.aws_dynamodb_table.dynamo&#45;state&#45;lock (expand)&#45;&gt;[root] provider[&quot;registry.terraform.io/hashicorp/aws&quot;] -->
<g id="edge3" class="edge">
<title>[root] module.databases.aws_dynamodb_table.dynamo&#45;state&#45;lock (expand)&#45;&gt;[root] provider[&quot;registry.terraform.io/hashicorp/aws&quot;]</title>
<path fill="none" stroke="black" d="M485.36,-287.92C508.19,-280.07 530.43,-268.63 547.64,-252 608.38,-193.3 564.74,-144.17 608.64,-72 615.21,-61.2 624.32,-50.83 633.03,-42.16"/>
<polygon fill="black" stroke="black" points="635.69,-44.46 640.51,-35.03 630.86,-39.4 635.69,-44.46"/>
</g>
<!-- [root] module.databases (expand) -->
<g id="node9" class="node">
<title>[root] module.databases (expand)</title>
<ellipse fill="none" stroke="black" cx="371.64" cy="-234" rx="167.07" ry="18"/>
<text text-anchor="middle" x="371.64" y="-230.3" font-family="Times,serif" font-size="14.00">[root] module.databases (expand)</text>
</g>
<!-- [root] module.databases.aws_dynamodb_table.dynamo&#45;state&#45;lock (expand)&#45;&gt;[root] module.databases (expand) -->
<g id="edge2" class="edge">
<title>[root] module.databases.aws_dynamodb_table.dynamo&#45;state&#45;lock (expand)&#45;&gt;[root] module.databases (expand)</title>
<path fill="none" stroke="black" d="M371.64,-287.7C371.64,-279.98 371.64,-270.71 371.64,-262.11"/>
<polygon fill="black" stroke="black" points="375.14,-262.1 371.64,-252.1 368.14,-262.1 375.14,-262.1"/>
</g>
<!-- [root] module.servers.aws_eip.ip (expand) -->
<g id="node2" class="node">
<title>[root] module.servers.aws_eip.ip (expand)</title>
<polygon fill="none" stroke="black" points="865.64,-252 659.64,-252 659.64,-216 865.64,-216 865.64,-252"/>
<text text-anchor="middle" x="762.64" y="-230.3" font-family="Times,serif" font-size="14.00">module.servers.aws_eip.ip</text>
</g>
<!-- [root] module.servers.aws_instance.web (expand) -->
<g id="node4" class="node">
<title>[root] module.servers.aws_instance.web (expand)</title>
<polygon fill="none" stroke="black" points="897.64,-180 637.64,-180 637.64,-144 897.64,-144 897.64,-180"/>
<text text-anchor="middle" x="767.64" y="-158.3" font-family="Times,serif" font-size="14.00">module.servers.aws_instance.web</text>
</g>
<!-- [root] module.servers.aws_eip.ip (expand)&#45;&gt;[root] module.servers.aws_instance.web (expand) -->
<g id="edge7" class="edge">
<title>[root] module.servers.aws_eip.ip (expand)&#45;&gt;[root] module.servers.aws_instance.web (expand)</title>
<path fill="none" stroke="black" d="M763.87,-215.7C764.42,-207.98 765.09,-198.71 765.7,-190.11"/>
<polygon fill="black" stroke="black" points="769.19,-190.33 766.41,-180.1 762.21,-189.83 769.19,-190.33"/>
</g>
<!-- [root] module.servers.aws_eip_association.ip (expand) -->
<g id="node3" class="node">
<title>[root] module.servers.aws_eip_association.ip (expand)</title>
<polygon fill="none" stroke="black" points="899.64,-324 607.64,-324 607.64,-288 899.64,-288 899.64,-324"/>
<text text-anchor="middle" x="753.64" y="-302.3" font-family="Times,serif" font-size="14.00">module.servers.aws_eip_association.ip</text>
</g>
<!-- [root] module.servers.aws_eip_association.ip (expand)&#45;&gt;[root] module.servers.aws_eip.ip (expand) -->
<g id="edge8" class="edge">
<title>[root] module.servers.aws_eip_association.ip (expand)&#45;&gt;[root] module.servers.aws_eip.ip (expand)</title>
<path fill="none" stroke="black" d="M755.86,-287.7C756.85,-279.98 758.04,-270.71 759.15,-262.11"/>
<polygon fill="black" stroke="black" points="762.63,-262.47 760.44,-252.1 755.69,-261.58 762.63,-262.47"/>
</g>
<!-- [root] module.servers.data.aws_ami.ubuntu (expand) -->
<g id="node5" class="node">
<title>[root] module.servers.data.aws_ami.ubuntu (expand)</title>
<polygon fill="none" stroke="black" points="901.64,-108 617.64,-108 617.64,-72 901.64,-72 901.64,-108"/>
<text text-anchor="middle" x="759.64" y="-86.3" font-family="Times,serif" font-size="14.00">module.servers.data.aws_ami.ubuntu</text>
</g>
<!-- [root] module.servers.aws_instance.web (expand)&#45;&gt;[root] module.servers.data.aws_ami.ubuntu (expand) -->
<g id="edge9" class="edge">
<title>[root] module.servers.aws_instance.web (expand)&#45;&gt;[root] module.servers.data.aws_ami.ubuntu (expand)</title>
<path fill="none" stroke="black" d="M765.66,-143.7C764.78,-135.98 763.72,-126.71 762.73,-118.11"/>
<polygon fill="black" stroke="black" points="766.2,-117.64 761.59,-108.1 759.25,-118.44 766.2,-117.64"/>
</g>
<!-- [root] module.servers.var.servers (expand) -->
<g id="node13" class="node">
<title>[root] module.servers.var.servers (expand)</title>
<ellipse fill="none" stroke="black" cx="1128.64" cy="-90" rx="209.06" ry="18"/>
<text text-anchor="middle" x="1128.64" y="-86.3" font-family="Times,serif" font-size="14.00">[root] module.servers.var.servers (expand)</text>
</g>
<!-- [root] module.servers.aws_instance.web (expand)&#45;&gt;[root] module.servers.var.servers (expand) -->
<g id="edge10" class="edge">
<title>[root] module.servers.aws_instance.web (expand)&#45;&gt;[root] module.servers.var.servers (expand)</title>
<path fill="none" stroke="black" d="M855.49,-143.97C910.81,-133.24 982.07,-119.42 1037.93,-108.59"/>
<polygon fill="black" stroke="black" points="1038.67,-112.01 1047.82,-106.67 1037.33,-105.14 1038.67,-112.01"/>
</g>
<!-- [root] module.servers.data.aws_ami.ubuntu (expand)&#45;&gt;[root] provider[&quot;registry.terraform.io/hashicorp/aws&quot;] -->
<g id="edge12" class="edge">
<title>[root] module.servers.data.aws_ami.ubuntu (expand)&#45;&gt;[root] provider[&quot;registry.terraform.io/hashicorp/aws&quot;]</title>
<path fill="none" stroke="black" d="M735.17,-71.88C721.86,-62.56 705.25,-50.93 690.99,-40.95"/>
<polygon fill="black" stroke="black" points="692.67,-37.85 682.48,-34.99 688.66,-43.59 692.67,-37.85"/>
</g>
<!-- [root] module.servers (expand) -->
<g id="node14" class="node">
<title>[root] module.servers (expand)</title>
<ellipse fill="none" stroke="black" cx="1310.64" cy="-18" rx="154.87" ry="18"/>
<text text-anchor="middle" x="1310.64" y="-14.3" font-family="Times,serif" font-size="14.00">[root] module.servers (expand)</text>
</g>
<!-- [root] module.servers.data.aws_ami.ubuntu (expand)&#45;&gt;[root] module.servers (expand) -->
<g id="edge11" class="edge">
<title>[root] module.servers.data.aws_ami.ubuntu (expand)&#45;&gt;[root] module.servers (expand)</title>
<path fill="none" stroke="black" d="M893.72,-71.97C987.73,-60.02 1111.89,-44.25 1200.2,-33.03"/>
<polygon fill="black" stroke="black" points="1200.77,-36.49 1210.25,-31.75 1199.89,-29.54 1200.77,-36.49"/>
</g>
<!-- [root] var.servers -->
<g id="node7" class="node">
<title>[root] var.servers</title>
<polygon fill="none" stroke="black" points="1131.64,-36 1041.64,-36 1041.64,0 1137.64,0 1137.64,-30 1131.64,-36"/>
<polyline fill="none" stroke="black" points="1131.64,-36 1131.64,-30 "/>
<polyline fill="none" stroke="black" points="1137.64,-30 1131.64,-30 "/>
<text text-anchor="middle" x="1089.64" y="-14.3" font-family="Times,serif" font-size="14.00">var.servers</text>
</g>
<!-- [root] module.databases (close) -->
<g id="node8" class="node">
<title>[root] module.databases (close)</title>
<ellipse fill="none" stroke="black" cx="156.64" cy="-378" rx="156.77" ry="18"/>
<text text-anchor="middle" x="156.64" y="-374.3" font-family="Times,serif" font-size="14.00">[root] module.databases (close)</text>
</g>
<!-- [root] module.databases (close)&#45;&gt;[root] module.databases.aws_dynamodb_table.dynamo&#45;state&#45;lock (expand) -->
<g id="edge1" class="edge">
<title>[root] module.databases (close)&#45;&gt;[root] module.databases.aws_dynamodb_table.dynamo&#45;state&#45;lock (expand)</title>
<path fill="none" stroke="black" d="M206.23,-360.85C237.05,-350.82 276.91,-337.84 309.78,-327.14"/>
<polygon fill="black" stroke="black" points="310.87,-330.47 319.29,-324.04 308.7,-323.81 310.87,-330.47"/>
</g>
<!-- [root] module.servers (close) -->
<g id="node10" class="node">
<title>[root] module.servers (close)</title>
<ellipse fill="none" stroke="black" cx="1427.64" cy="-378" rx="144.07" ry="18"/>
<text text-anchor="middle" x="1427.64" y="-374.3" font-family="Times,serif" font-size="14.00">[root] module.servers (close)</text>
</g>
<!-- [root] module.servers (close)&#45;&gt;[root] module.servers.aws_eip_association.ip (expand) -->
<g id="edge4" class="edge">
<title>[root] module.servers (close)&#45;&gt;[root] module.servers.aws_eip_association.ip (expand)</title>
<path fill="none" stroke="black" d="M1324.11,-365.4C1307.24,-363.56 1289.96,-361.71 1273.64,-360 1114.83,-343.4 1072.49,-340.98 910.03,-324.14"/>
<polygon fill="black" stroke="black" points="909.97,-320.61 899.66,-323.06 909.25,-327.58 909.97,-320.61"/>
</g>
<!-- [root] module.servers.output.ip_address (expand) -->
<g id="node11" class="node">
<title>[root] module.servers.output.ip_address (expand)</title>
<ellipse fill="none" stroke="black" cx="1158.64" cy="-306" rx="241.26" ry="18"/>
<text text-anchor="middle" x="1158.64" y="-302.3" font-family="Times,serif" font-size="14.00">[root] module.servers.output.ip_address (expand)</text>
</g>
<!-- [root] module.servers (close)&#45;&gt;[root] module.servers.output.ip_address (expand) -->
<g id="edge5" class="edge">
<title>[root] module.servers (close)&#45;&gt;[root] module.servers.output.ip_address (expand)</title>
<path fill="none" stroke="black" d="M1368.27,-361.55C1327.93,-351.06 1274.33,-337.11 1231.42,-325.94"/>
<polygon fill="black" stroke="black" points="1232.16,-322.52 1221.6,-323.38 1230.39,-329.29 1232.16,-322.52"/>
</g>
<!-- [root] module.servers.var.image_id (expand) -->
<g id="node12" class="node">
<title>[root] module.servers.var.image_id (expand)</title>
<ellipse fill="none" stroke="black" cx="1408.64" cy="-162" rx="215.56" ry="18"/>
<text text-anchor="middle" x="1408.64" y="-158.3" font-family="Times,serif" font-size="14.00">[root] module.servers.var.image_id (expand)</text>
</g>
<!-- [root] module.servers (close)&#45;&gt;[root] module.servers.var.image_id (expand) -->
<g id="edge6" class="edge">
<title>[root] module.servers (close)&#45;&gt;[root] module.servers.var.image_id (expand)</title>
<path fill="none" stroke="black" d="M1426.11,-359.85C1422.83,-322.83 1415.04,-235.18 1411.07,-190.39"/>
<polygon fill="black" stroke="black" points="1414.54,-189.88 1410.17,-180.23 1407.56,-190.5 1414.54,-189.88"/>
</g>
<!-- [root] module.servers.output.ip_address (expand)&#45;&gt;[root] module.servers.aws_instance.web (expand) -->
<g id="edge13" class="edge">
<title>[root] module.servers.output.ip_address (expand)&#45;&gt;[root] module.servers.aws_instance.web (expand)</title>
<path fill="none" stroke="black" d="M1112.63,-288.29C1040.81,-262.21 902.22,-211.88 824.33,-183.59"/>
<polygon fill="black" stroke="black" points="825.27,-180.21 814.68,-180.08 822.88,-186.79 825.27,-180.21"/>
</g>
<!-- [root] module.servers.var.image_id (expand)&#45;&gt;[root] module.servers (expand) -->
<g id="edge14" class="edge">
<title>[root] module.servers.var.image_id (expand)&#45;&gt;[root] module.servers (expand)</title>
<path fill="none" stroke="black" d="M1396.82,-143.87C1379.74,-119.14 1348.07,-73.24 1328.24,-44.51"/>
<polygon fill="black" stroke="black" points="1331.06,-42.43 1322.5,-36.19 1325.3,-46.41 1331.06,-42.43"/>
</g>
<!-- [root] module.servers.var.servers (expand)&#45;&gt;[root] var.servers -->
<g id="edge16" class="edge">
<title>[root] module.servers.var.servers (expand)&#45;&gt;[root] var.servers</title>
<path fill="none" stroke="black" d="M1119,-71.7C1114.51,-63.64 1109.08,-53.89 1104.11,-44.98"/>
<polygon fill="black" stroke="black" points="1107.09,-43.14 1099.17,-36.1 1100.98,-46.54 1107.09,-43.14"/>
</g>
<!-- [root] module.servers.var.servers (expand)&#45;&gt;[root] module.servers (expand) -->
<g id="edge15" class="edge">
<title>[root] module.servers.var.servers (expand)&#45;&gt;[root] module.servers (expand)</title>
<path fill="none" stroke="black" d="M1172.23,-72.23C1198.19,-62.25 1231.3,-49.51 1258.62,-39"/>
<polygon fill="black" stroke="black" points="1259.95,-42.24 1268.03,-35.39 1257.44,-35.71 1259.95,-42.24"/>
</g>
<!-- [root] output.ip_address (expand) -->
<g id="node15" class="node">
<title>[root] output.ip_address (expand)</title>
<ellipse fill="none" stroke="black" cx="1098.64" cy="-378" rx="166.27" ry="18"/>
<text text-anchor="middle" x="1098.64" y="-374.3" font-family="Times,serif" font-size="14.00">[root] output.ip_address (expand)</text>
</g>
<!-- [root] output.ip_address (expand)&#45;&gt;[root] module.servers.output.ip_address (expand) -->
<g id="edge17" class="edge">
<title>[root] output.ip_address (expand)&#45;&gt;[root] module.servers.output.ip_address (expand)</title>
<path fill="none" stroke="black" d="M1113.16,-360.05C1120.35,-351.67 1129.17,-341.38 1137.12,-332.1"/>
<polygon fill="black" stroke="black" points="1139.98,-334.15 1143.83,-324.28 1134.66,-329.59 1139.98,-334.15"/>
</g>
<!-- [root] provider[&quot;registry.terraform.io/hashicorp/aws&quot;] (close) -->
<g id="node16" class="node">
<title>[root] provider[&quot;registry.terraform.io/hashicorp/aws&quot;] (close)</title>
<ellipse fill="none" stroke="black" cx="622.64" cy="-378" rx="291.65" ry="18"/>
<text text-anchor="middle" x="622.64" y="-374.3" font-family="Times,serif" font-size="14.00">[root] provider[&quot;registry.terraform.io/hashicorp/aws&quot;] (close)</text>
</g>
<!-- [root] provider[&quot;registry.terraform.io/hashicorp/aws&quot;] (close)&#45;&gt;[root] module.databases.aws_dynamodb_table.dynamo&#45;state&#45;lock (expand) -->
<g id="edge18" class="edge">
<title>[root] provider[&quot;registry.terraform.io/hashicorp/aws&quot;] (close)&#45;&gt;[root] module.databases.aws_dynamodb_table.dynamo&#45;state&#45;lock (expand)</title>
<path fill="none" stroke="black" d="M562.83,-360.32C526.76,-350.26 480.61,-337.39 442.68,-326.81"/>
<polygon fill="black" stroke="black" points="443.3,-323.35 432.72,-324.04 441.42,-330.09 443.3,-323.35"/>
</g>
<!-- [root] provider[&quot;registry.terraform.io/hashicorp/aws&quot;] (close)&#45;&gt;[root] module.servers.aws_eip_association.ip (expand) -->
<g id="edge19" class="edge">
<title>[root] provider[&quot;registry.terraform.io/hashicorp/aws&quot;] (close)&#45;&gt;[root] module.servers.aws_eip_association.ip (expand)</title>
<path fill="none" stroke="black" d="M654.35,-360.05C671.92,-350.67 693.95,-338.89 712.8,-328.82"/>
<polygon fill="black" stroke="black" points="714.59,-331.83 721.76,-324.03 711.29,-325.66 714.59,-331.83"/>
</g>
<!-- [root] root -->
<g id="node17" class="node">
<title>[root] root</title>
<ellipse fill="none" stroke="black" cx="860.64" cy="-450" rx="58.49" ry="18"/>
<text text-anchor="middle" x="860.64" y="-446.3" font-family="Times,serif" font-size="14.00">[root] root</text>
</g>
<!-- [root] root&#45;&gt;[root] module.databases (close) -->
<g id="edge20" class="edge">
<title>[root] root&#45;&gt;[root] module.databases (close)</title>
<path fill="none" stroke="black" d="M805.54,-443.67C707.98,-434.21 498.45,-413.8 321.64,-396 307.78,-394.61 293.28,-393.13 278.86,-391.66"/>
<polygon fill="black" stroke="black" points="279.21,-388.17 268.91,-390.64 278.5,-395.14 279.21,-388.17"/>
</g>
<!-- [root] root&#45;&gt;[root] module.servers (close) -->
<g id="edge21" class="edge">
<title>[root] root&#45;&gt;[root] module.servers (close)</title>
<path fill="none" stroke="black" d="M913.98,-442.41C1006.29,-431.02 1197.54,-407.41 1318.85,-392.43"/>
<polygon fill="black" stroke="black" points="1319.42,-395.89 1328.91,-391.19 1318.56,-388.94 1319.42,-395.89"/>
</g>
<!-- [root] root&#45;&gt;[root] output.ip_address (expand) -->
<g id="edge22" class="edge">
<title>[root] root&#45;&gt;[root] output.ip_address (expand)</title>
<path fill="none" stroke="black" d="M901.28,-437.05C937.74,-426.32 991.86,-410.4 1034.21,-397.95"/>
<polygon fill="black" stroke="black" points="1035.27,-401.28 1043.88,-395.1 1033.3,-394.57 1035.27,-401.28"/>
</g>
<!-- [root] root&#45;&gt;[root] provider[&quot;registry.terraform.io/hashicorp/aws&quot;] (close) -->
<g id="edge23" class="edge">
<title>[root] root&#45;&gt;[root] provider[&quot;registry.terraform.io/hashicorp/aws&quot;] (close)</title>
<path fill="none" stroke="black" d="M819.99,-437.05C784.15,-426.5 731.23,-410.94 689.22,-398.58"/>
<polygon fill="black" stroke="black" points="690.19,-395.22 679.61,-395.76 688.22,-401.94 690.19,-395.22"/>
</g>
</g>
</svg>
